General                          : ChattChitto RG - Movies [R2L]
==========
Complete name                    : Gulliver's Travels 2010 720p BRRip H264 [ChattChitto RG]
Format                           : MPEG-4
Format profile                   : Base Media
Codec ID                         : isom
File size                        : 1.57 GiB
Duration                         : 1h 24mn
Overall bit rate                 : 2 656 Kbps
Encoded date                     : UTC 2011-03-19 10:31:42

Video
===========
ID                               : 1
Format                           : AVC
Format/Info                      : Advanced Video Codec
Format profile                   : High@L4.1
Format settings, CABAC           : Yes
Format settings, ReFrames        : 4 frames
Codec ID                         : avc1
Codec ID/Info                    : Advanced Video Coding
Duration                         : 1h 24mn
Bit rate mode                    : Variable
Bit rate                         : 2 300 Kbps
Maximum bit rate                 : 14.2 Mbps
Width                            : 1 280 pixels
Height                           : 544 pixels
Display aspect ratio             : 2.35:1
Frame rate mode                  : Constant
Frame rate                       : 23.976 fps
Color space                      : YUV
Chroma subsampling               : 4:2:0
Bit depth                        : 8 bits
Scan type                        : Progressive
Bits/(Pixel*Frame)               : 0.138
Stream size                      : 1.36 GiB (87%)
Title                            : Imported with GPAC 0.4.6-DEV (internal rev. 7)
Writing library                  : x264 core 107 r1745 4785e8e
Encoded date                     : UTC 2011-03-19 09:39:57

Audio
==========
ID                               : 2
Format                           : AAC
Format/Info                      : Advanced Audio Codec
Format profile                   : LC
Codec ID                         : 40
Duration                         : 1h 24mn
Bit rate mode                    : Variable
Bit rate                         : 352.8 Kbps
Maximum bit rate                 : 425 Kbps
Channel(s)                       : 2 channels
Channel positions                : Front: L R
Sampling rate                    : 48.0 KHz
Compression mode                 : Lossy
Stream size                      : 213 MiB (13%)
Encoded date                     : UTC 2011-03-19 10:32:02

Subtitles                        : English | French | Spanish


----------------------------------------------------
IMDB Link: http://www.imdb.com/title/tt1320261/
----------------------------------------------------



Screen Shots:
==============    
http://chattchitto.net/chattchittorg/movies/brrip/2011/gullivers_travels/1.png 
http://chattchitto.net/chattchittorg/movies/brrip/2011/gullivers_travels/2.png 
http://chattchitto.net/chattchittorg/movies/brrip/2011/gullivers_travels/3.png 
http://chattchitto.net/chattchittorg/movies/brrip/2011/gullivers_travels/4.png 
http://chattchitto.net/chattchittorg/movies/brrip/2011/gullivers_travels/5.png 
http://chattchitto.net/chattchittorg/movies/brrip/2011/gullivers_travels/6.png 
http://chattchitto.net/chattchittorg/movies/brrip/2011/gullivers_travels/7.png



ScreenShots Comparison:
=========================  
http://screenshotcomparison.com/comparison/36997



Plot:
======
Travel writer Lemuel Gulliver takes an assignment in Bermuda, but ends up on the island of Liliput, where he towers over its tiny citizens.



Release Info:
==============
original name .... : Gulliver's Travels 2010 720p BRRip H264 [ChattChitto RG]
ripper.............: CHD
encoder............: Recalled2Life (R2L)
video codec........: H264/.MP4
video bitrate......: 2300 Kbps
audio codec........: AAC-LC
aspect ratio.......: 2.35:1
resolution.........: 1280 x 544
genre..............: Adventure | Comedy | Fantasy
runtime............: 1h 24mn
language...........: English
rating.............: PG
subtitles..........: English | French | Spanish
sample.............: Yes
2ch Audio..........: 2ch Audio for XBox Viewers
Compatibility .....: XBox | PS3 | WD Live



Source:
========
Gulliver's.Travels.2010.BluRay.720p.DTS.x264-CHD



Notes:
=======
ChattChitto RG Encourages Burning this Film with ConvertXtoDVD and Playing with VLC media player.
XBox 360 | PS3 | WD Live - Compatible 
Enhanced for your viewing pleasure ;)